<svg fill="currentColor" viewBox="0 0 24 24" xmlns="http://www.w3.org/2000/svg">
  <path d="M18 12c-1.1 0-2 .9-2 2s.9 2 2 2 2-.9 2-2-.9-2-2-2zm-2.73-3.66c-.34-.34-.77-.55-1.22-.64l1.24-1.24c.39-.39.39-1.02 0-1.41-.39-.39-1.02-.39-1.41 0L12 7.79l-2.73-2.73c-.39-.39-1.02-.39-1.41 0-.39.39-.39 1.02 0 1.41l1.24 1.24c-.45.09-.88.3-1.22.64-1.2 1.2-1.2 3.14 0 4.34l.71.71c.2-.2.43-.37.68-.53l-1.39-1.39c-.78-.78-2.05-.78-2.83 0s-.78 2.05 0 2.83l1.39 1.39c-.16.25-.33.48-.53.68l-.71.71c-1.2-1.2-1.2-3.14 0-4.34.34-.34.77-.55 1.22-.64l-1.24-1.24c-.39-.39-.39-1.02 0-1.41s1.02-.39 1.41 0L12 16.21l2.73 2.73c.39.39 1.02.39 1.41 0 .39-.39.39-1.02 0-1.41l-1.24-1.24c.45-.09.88-.3 1.22-.64 1.2-1.2 1.2-3.14 0-4.34zM12 2C6.48 2 2 6.48 2 12s4.48 10 10 10 10-4.48 10-10S17.52 2 12 2zm0 18c-4.41 0-8-3.59-8-8s3.59-8 8-8 8 3.59 8 8-3.59 8-8 8z"/>
</svg> 